#!OML:ASF F:\VICON\USERDATA\INSTALL\rory3\rory3.ASF
:FULLY-SPECIFIED
:DEGREES
2572
root 0.533776 17.645 1.64757 -528.739 -67.6502 529.699
lowerback 14.9523 2.61803 -3.34076
upperback 4.08884 2.62455 -1.18985
thorax -4.13674 1.1973 0.163982
lowerneck -4.50549 12.2923 -0.936775
upperneck 8.87169 17.0046 -5.68227
head 4.18918 8.07679 -0.829729
rclavicle -2.53947e-014 1.87852e-014
rhumerus -22.0136 11.8592 -81.4453
rradius 109.004
rwrist -42.6283
rhand 6.45506 9.29639
rfingers 7.12502
rthumb 31.7568 -17.958
lclavicle -2.53947e-014 1.87852e-014
lhumerus -30.1651 -10.8831 77.0272
lradius 143.683
lwrist 37.4717
lhand 12.6842 21.1474
lfingers 7.12502
lthumb 37.6675 47.0363
rfemur -9.39658 21.5559 -2.66033
rtibia 43.9455
rfoot -14.4753 -11.6492
rtoes -37.7836
lfemur -22.0828 2.65623 1.91607
ltibia 47.2441
lfoot -2.51636 14.574
ltoes -4.83519
2573
root 0.474987 17.5496 1.64849 -528.313 -67.5158 528.986
lowerback 14.9533 2.65903 -3.77337
upperback 3.86266 2.60552 -1.38687
thorax -4.38503 1.19841 0.197283
lowerneck -4.88926 12.3783 -0.778114
upperneck 8.94116 17.1296 -5.65739
head 4.30518 8.1337 -0.807495
rclavicle -2.22887e-014 1.61016e-014
rhumerus -24.4021 12.496 -81.9164
rradius 107.964
rwrist -40.0328
rhand 5.33359 9.5693
rfingers 7.12502
rthumb 30.6881 -17.8911
lclavicle -2.22887e-014 1.61016e-014
lhumerus -32.5956 -11.905 78.502
lradius 143.932
lwrist 35.2694
lhand 13.6451 20.4193
lfingers 7.12502
lthumb 38.5748 46.0598
rfemur -8.09075 22.3681 -2.79223
rtibia 43.0933
rfoot -17.4181 -11.3838
rtoes -34.1975
lfemur -21.2599 2.10991 2.132
ltibia 46.5333
lfoot -2.06432 14.7825
ltoes -6.19389
2574
root 0.418935 17.4622 1.66017 -528.578 -67.3575 528.893
lowerback 15.2072 2.71242 -3.96663
upperback 3.66574 2.62563 -1.48603
thorax -4.73499 1.21713 0.18195
lowerneck -5.32545 12.4452 -0.710718
upperneck 8.99356 17.242 -5.70505
head 4.42447 8.17658 -0.791822
rclavicle -8.80616e-014 3.71727e-014
rhumerus -26.7175 13.2135 -82.2794
rradius 106.881
rwrist -37.6505
rhand 4.58456 9.45501
rfingers 7.12502
rthumb 29.9736 -18.137
lclavicle -8.80616e-014 3.71727e-014
lhumerus -34.9373 -12.886 79.8821
lradius 144.129
lwrist 33.1358
lhand 14.4296 19.9082
lfingers 7.12502
lthumb 39.3144 45.3374
rfemur -6.85352 23.174 -2.64319
rtibia 42.2586
rfoot -18.1896 -12.2417
rtoes -32.0292
lfemur -20.2898 1.4601 2.53395
ltibia 45.8232
lfoot -1.29509 14.7427
ltoes -8.23603
2575
root 0.356954 17.368 1.69047 -529.936 -67.3579 529.93
lowerback 15.5209 2.70384 -3.59637
upperback 3.47882 2.66339 -1.42336
thorax -5.09058 1.24108 0.0145798
lowerneck -5.63449 12.4743 -0.78438
upperneck 8.94922 17.3055 -5.78316
head 4.47156 8.19509 -0.780798
rclavicle -2.52146e-014 1.34925e-014
rhumerus -29.1086 14.0418 -82.5187
rradius 105.814
rwrist -35.7186
rhand 3.78778 9.3987
rfingers 7.12502
rthumb 29.2131 -18.3282
lclavicle -2.52146e-014 1.34925e-014
lhumerus -37.1229 -13.8095 80.9652
lradius 144.292
lwrist 31.1893
lhand 15.2135 19.8474
lfingers 7.12502
lthumb 40.0526 45.0576
rfemur -5.61224 23.7421 -2.04926
rtibia 41.5241
rfoot -19.1078 -13.2978
rtoes -34.1885
lfemur -19.2643 0.622986 3.3931
ltibia 45.1083
lfoot -0.558103 14.3108
ltoes -10.0715
2576
root 0.290497 17.2761 1.73938 -532.22 -67.4998 532.068
lowerback 15.819 2.61598 -2.56773
upperback 3.22423 2.71814 -1.32814
thorax -5.48075 1.26625 -0.494099
lowerneck -5.66515 12.5303 -0.762432
upperneck 8.72532 17.3866 -5.99367
head 4.42481 8.2324 -0.850433
rclavicle -9.62242e-015 -1.06847e-015
rhumerus -31.6901 14.8413 -82.9039
rradius 104.841
rwrist -34.217
rhand 3.25468 9.34731
rfingers 7.12502
rthumb 28.7039 -18.467
lclavicle -9.62242e-015 -1.06847e-015
lhumerus -38.9036 -14.6549 81.2875
lradius 144.453
lwrist 29.496
lhand 16.4944 19.8332
lfingers 7.12502
lthumb 41.2564 44.6675
rfemur -4.5647 24.02 -1.0704
rtibia 40.949
rfoot -20.0712 -13.794
rtoes -35.0919
lfemur -18.4012 -0.19304 4.6444
ltibia 44.3559
lfoot 0.306024 13.474
ltoes -12.7717
